<svg xmlns="http://www.w3.org/2000/svg" viewBox="0 0 1200 630" width="1200" height="630">
  <defs>
    <pattern id="p" width="32" height="32" patternUnits="userSpaceOnUse"><circle cx="2" cy="2" r="1.6" fill="#fff" opacity=".16"/></pattern>
  </defs>
  <rect width="1200" height="630" fill="#0f3a99"/>
  <rect width="1200" height="630" fill="url(#p)"/>
  <circle cx="1090" cy="70" r="250" fill="#1a56db" opacity=".55"/>
  <circle cx="90" cy="580" r="210" fill="#0a2c78"/>
  <!-- portapapeles -->
  <rect x="330" y="120" width="380" height="450" rx="30" fill="#071f57" opacity=".35" transform="translate(14 16)"/>
  <rect x="330" y="120" width="380" height="450" rx="30" fill="#fff"/>
  <rect x="450" y="92" width="140" height="56" rx="18" fill="#6f9bff"/>
  <rect x="478" y="108" width="84" height="12" rx="6" fill="#fff"/>
  <g>
    <rect x="372" y="196" width="46" height="46" rx="13" fill="#1a56db"/>
    <path d="M384 220l9 9 15-18" fill="none" stroke="#fff" stroke-width="7" stroke-linecap="round" stroke-linejoin="round"/>
    <rect x="442" y="200" width="220" height="16" rx="8" fill="#cfe0ff"/>
    <rect x="442" y="226" width="150" height="14" rx="7" fill="#e5edff"/>

    <rect x="372" y="280" width="46" height="46" rx="13" fill="#1a56db"/>
    <path d="M384 304l9 9 15-18" fill="none" stroke="#fff" stroke-width="7" stroke-linecap="round" stroke-linejoin="round"/>
    <rect x="442" y="284" width="190" height="16" rx="8" fill="#cfe0ff"/>
    <rect x="442" y="310" width="120" height="14" rx="7" fill="#e5edff"/>

    <rect x="372" y="364" width="46" height="46" rx="13" fill="#1a56db"/>
    <path d="M384 388l9 9 15-18" fill="none" stroke="#fff" stroke-width="7" stroke-linecap="round" stroke-linejoin="round"/>
    <rect x="442" y="368" width="210" height="16" rx="8" fill="#cfe0ff"/>
    <rect x="442" y="394" width="140" height="14" rx="7" fill="#e5edff"/>

    <rect x="374" y="450" width="42" height="42" rx="12" fill="none" stroke="#9db9ff" stroke-width="5"/>
    <rect x="442" y="452" width="170" height="16" rx="8" fill="#cfe0ff"/>
    <rect x="442" y="478" width="100" height="14" rx="7" fill="#e5edff"/>
  </g>
  <!-- gráfico de barras -->
  <rect x="790" y="270" width="300" height="250" rx="26" fill="#071f57" opacity=".35" transform="translate(12 14)"/>
  <rect x="790" y="270" width="300" height="250" rx="26" fill="#fff"/>
  <g fill="#cfe0ff">
    <rect x="822" y="400" width="44" height="86" rx="10"/>
    <rect x="884" y="360" width="44" height="126" rx="10" fill="#9db9ff"/>
    <rect x="946" y="330" width="44" height="156" rx="10" fill="#6f9bff"/>
    <rect x="1008" y="298" width="44" height="188" rx="10" fill="#1a56db"/>
  </g>
  <!-- moneda -->
  <circle cx="220" cy="440" r="72" fill="#cfe0ff"/>
  <circle cx="220" cy="440" r="50" fill="none" stroke="#6f9bff" stroke-width="10"/>
  <rect x="190" y="432" width="60" height="16" rx="8" fill="#6f9bff"/>
  <circle cx="160" cy="250" r="36" fill="#9db9ff"/>
  <circle cx="160" cy="250" r="22" fill="none" stroke="#fff" stroke-width="6" opacity=".8"/>
</svg>
